# xmcd
#
# Track frame offsets:
# 150
# 14675
# 28697
# 38037
# 54192
# 74157
# 92332
# 110045
# 121970
# 138512
# 155122
# 171842
# 183475
# 189445
# 202492
#
# Disc length: 2888 seconds
#
#
# Revision: 0
# Processed by: cddbd v1.5.2PL0 Copyright (c) Steve Scherf et al.
# Submitted via: Nero 7, 11, 10, 0 
#
DISCID=df0b460f
DTITLE=Shakin' Snakes - Shakin' Snakes
DYEAR=1992
DGENRE=Blues
TTITLE0=I'll Make It Alright
TTITLE1=Dr. Feelgood
TTITLE2=Look What You Done To Me
TTITLE3=Lookin' For Love
TTITLE4=Share What You Got
TTITLE5=I Learned It All the Hard Way
TTITLE6=Don't Play That Song
TTITLE7=Sit Right There
TTITLE8=I'm Cuttin' In On You
TTITLE9=Run You off The Hill
TTITLE10=Down In The Bottom
TTITLE11=Send My Soul To The Devil
TTITLE12=Ain't That The Truths
TTITLE13=Last Time
TTITLE14=Don't You Mind People Grinning In Your Face
EXTD=
EXTT0=I'll Make It Alright
EXTT1=Dr. Feelgood
EXTT2=Look What You Done To Me
EXTT3=Lookin' For Love
EXTT4=Share What You Got
EXTT5=I Learned It All the Hard Way
EXTT6=Don't Play That Song
EXTT7=Sit Right There
EXTT8=I'm Cuttin' In On You
EXTT9=Run You off The Hill
EXTT10=Down In The Bottom
EXTT11=Send My Soul To The Devil
EXTT12=Ain't That The Truths
EXTT13=Last Time
EXTT14=Don't You Mind People Grinning In Your Face
PLAYORDER=
